<svg width="104" height="34" viewBox="0 0 104 34" fill="none" xmlns="http://www.w3.org/2000/svg">
<g clip-path="url(#clip0_4_47)">
<path d="M14.5983 1.03031C11.8461 1.30974 9.30489 2.20075 7.14852 3.64536C5.0396 5.05306 3.38938 6.80346 2.10821 8.97038C1.14865 10.6048 0.447436 12.5924 0.146916 14.5537C-0.0112531 15.5449 -0.0481591 17.5695 0.0678313 18.5554C0.11001 18.9455 0.162733 19.3093 0.183822 19.3568C0.215455 19.4411 1.28046 19.4464 16.0481 19.4464H31.8756L31.9388 18.9983C32.1814 17.2637 32.0917 15.2444 31.7016 13.4993C31.0373 10.5257 29.5716 7.85792 27.431 5.71737C24.816 3.10759 21.4417 1.47845 17.8091 1.07249C17.1711 1.00395 15.1413 0.972314 14.5983 1.03031ZM16.9708 6.23933C18.9374 6.35005 21.1886 7.24634 22.8494 8.58023C24.0568 9.54506 24.9794 10.6839 25.6964 12.0916C26.0233 12.7295 26.3766 13.6469 26.482 14.1319L26.5136 14.2796H16.0218H5.52993L5.56156 14.1319C5.73027 13.3516 6.39458 11.8649 6.95344 11.0371C8.57204 8.61713 11.05 6.96163 13.8865 6.3975C14.5666 6.26569 15.7265 6.16025 16.18 6.19188C16.3118 6.20242 16.665 6.22351 16.9708 6.23933Z" fill="#D6D6D6"/>
<path d="M23.5876 24.4603C21.4049 26.6694 18.289 27.8399 15.1678 27.6184C13.4965 27.4972 12.0149 27.0437 10.5492 26.2107C9.70043 25.7204 9.24701 25.3724 8.44562 24.5921L7.90257 24.0649L7.78658 24.1703C7.71804 24.2336 6.86921 24.977 5.8991 25.8258C4.929 26.6747 4.10125 27.397 4.06962 27.4286C3.93781 27.5499 5.22952 28.81 6.35252 29.6641C6.99574 30.1491 7.93421 30.7343 8.68815 31.1192C11.2136 32.4057 13.9024 32.9698 16.7758 32.8274C20.6826 32.6324 24.4417 30.9558 27.2677 28.1404C27.6051 27.7977 27.8845 27.5024 27.8845 27.4761C27.8845 27.4392 24.1201 24.0807 24.041 24.0438C24.0252 24.0385 23.8196 24.2231 23.5876 24.4603Z" fill="#D6D6D6"/>
<path d="M54.44 9.79799C54.44 10.17 54.416 10.506 54.368 10.806H46.79C46.85 11.598 47.144 12.234 47.672 12.714C48.2 13.194 48.848 13.434 49.616 13.434C50.72 13.434 51.5 12.972 51.956 12.048H54.17C53.87 12.96 53.324 13.71 52.532 14.298C51.752 14.874 50.78 15.162 49.616 15.162C48.668 15.162 47.816 14.952 47.06 14.532C46.316 14.1 45.728 13.5 45.296 12.732C44.876 11.952 44.666 11.052 44.666 10.032C44.666 9.01199 44.87 8.11799 45.278 7.34999C45.698 6.56999 46.28 5.96999 47.024 5.54999C47.78 5.12999 48.644 4.91999 49.616 4.91999C50.552 4.91999 51.386 5.12399 52.118 5.53199C52.85 5.93999 53.42 6.51599 53.828 7.25999C54.236 7.99199 54.44 8.83799 54.44 9.79799ZM52.298 9.14999C52.286 8.39399 52.016 7.78799 51.488 7.33199C50.96 6.87599 50.306 6.64799 49.526 6.64799C48.818 6.64799 48.212 6.87599 47.708 7.33199C47.204 7.77599 46.904 8.38199 46.808 9.14999H52.298ZM55.1454 9.99599C55.1454 8.99999 55.3494 8.11799 55.7574 7.34999C56.1774 6.58199 56.7414 5.98799 57.4494 5.56799C58.1694 5.13599 58.9674 4.91999 59.8434 4.91999C60.4914 4.91999 61.1274 5.06399 61.7514 5.35199C62.3874 5.62799 62.8914 5.99999 63.2634 6.46799V1.67999H65.3334V15H63.2634V13.506C62.9274 13.986 62.4594 14.382 61.8594 14.694C61.2714 15.006 60.5934 15.162 59.8254 15.162C58.9614 15.162 58.1694 14.946 57.4494 14.514C56.7414 14.07 56.1774 13.458 55.7574 12.678C55.3494 11.886 55.1454 10.992 55.1454 9.99599ZM63.2634 10.032C63.2634 9.34799 63.1194 8.75399 62.8314 8.24999C62.5554 7.74599 62.1894 7.36199 61.7334 7.09799C61.2774 6.83399 60.7854 6.70199 60.2574 6.70199C59.7294 6.70199 59.2374 6.83399 58.7814 7.09799C58.3254 7.34999 57.9534 7.72799 57.6654 8.23199C57.3894 8.72399 57.2514 9.31199 57.2514 9.99599C57.2514 10.68 57.3894 11.28 57.6654 11.796C57.9534 12.312 58.3254 12.708 58.7814 12.984C59.2494 13.248 59.7414 13.38 60.2574 13.38C60.7854 13.38 61.2774 13.248 61.7334 12.984C62.1894 12.72 62.5554 12.336 62.8314 11.832C63.1194 11.316 63.2634 10.716 63.2634 10.032ZM76.3806 5.08199V15H74.3286V13.83C74.0046 14.238 73.5786 14.562 73.0506 14.802C72.5346 15.03 71.9826 15.144 71.3946 15.144C70.6146 15.144 69.9126 14.982 69.2886 14.658C68.6766 14.334 68.1906 13.854 67.8306 13.218C67.4826 12.582 67.3086 11.814 67.3086 10.914V5.08199H69.3426V10.608C69.3426 11.496 69.5646 12.18 70.0086 12.66C70.4526 13.128 71.0586 13.362 71.8266 13.362C72.5946 13.362 73.2006 13.128 73.6446 12.66C74.1006 12.18 74.3286 11.496 74.3286 10.608V5.08199H76.3806ZM47.402 22.558C47.75 22.078 48.224 21.688 48.824 21.388C49.436 21.076 50.114 20.92 50.858 20.92C51.734 20.92 52.526 21.13 53.234 21.55C53.942 21.97 54.5 22.57 54.908 23.35C55.316 24.118 55.52 25 55.52 25.996C55.52 26.992 55.316 27.886 54.908 28.678C54.5 29.458 53.936 30.07 53.216 30.514C52.508 30.946 51.722 31.162 50.858 31.162C50.09 31.162 49.406 31.012 48.806 30.712C48.218 30.412 47.75 30.028 47.402 29.56V31H45.35V17.68H47.402V22.558ZM53.432 25.996C53.432 25.312 53.288 24.724 53 24.232C52.724 23.728 52.352 23.35 51.884 23.098C51.428 22.834 50.936 22.702 50.408 22.702C49.892 22.702 49.4 22.834 48.932 23.098C48.476 23.362 48.104 23.746 47.816 24.25C47.54 24.754 47.402 25.348 47.402 26.032C47.402 26.716 47.54 27.316 47.816 27.832C48.104 28.336 48.476 28.72 48.932 28.984C49.4 29.248 49.892 29.38 50.408 29.38C50.936 29.38 51.428 29.248 51.884 28.984C52.352 28.708 52.724 28.312 53 27.796C53.288 27.28 53.432 26.68 53.432 25.996ZM65.9012 21.082V31H63.8492V29.83C63.5252 30.238 63.0992 30.562 62.5712 30.802C62.0552 31.03 61.5032 31.144 60.9152 31.144C60.1352 31.144 59.4332 30.982 58.8092 30.658C58.1972 30.334 57.7112 29.854 57.3512 29.218C57.0032 28.582 56.8292 27.814 56.8292 26.914V21.082H58.8632V26.608C58.8632 27.496 59.0852 28.18 59.5292 28.66C59.9732 29.128 60.5792 29.362 61.3472 29.362C62.1152 29.362 62.7212 29.128 63.1652 28.66C63.6212 28.18 63.8492 27.496 63.8492 26.608V21.082H65.9012ZM70.0307 22.522C70.3307 22.018 70.7267 21.628 71.2187 21.352C71.7227 21.064 72.3167 20.92 73.0007 20.92V23.044H72.4787C71.6747 23.044 71.0627 23.248 70.6427 23.656C70.2347 24.064 70.0307 24.772 70.0307 25.78V31H67.9787V21.082H70.0307V22.522ZM79.2609 20.92C80.0409 20.92 80.7369 21.082 81.3489 21.406C81.9729 21.73 82.4589 22.21 82.8069 22.846C83.1549 23.482 83.3289 24.25 83.3289 25.15V31H81.2949V25.456C81.2949 24.568 81.0729 23.89 80.6289 23.422C80.1849 22.942 79.5789 22.702 78.8109 22.702C78.0429 22.702 77.4309 22.942 76.9749 23.422C76.5309 23.89 76.3089 24.568 76.3089 25.456V31H74.2569V21.082H76.3089V22.216C76.6449 21.808 77.0709 21.49 77.5869 21.262C78.1149 21.034 78.6729 20.92 79.2609 20.92ZM94.4063 25.798C94.4063 26.17 94.3823 26.506 94.3343 26.806H86.7563C86.8163 27.598 87.1103 28.234 87.6383 28.714C88.1663 29.194 88.8143 29.434 89.5823 29.434C90.6863 29.434 91.4663 28.972 91.9223 28.048H94.1363C93.8363 28.96 93.2903 29.71 92.4983 30.298C91.7183 30.874 90.7463 31.162 89.5823 31.162C88.6343 31.162 87.7823 30.952 87.0263 30.532C86.2823 30.1 85.6943 29.5 85.2623 28.732C84.8423 27.952 84.6323 27.052 84.6323 26.032C84.6323 25.012 84.8363 24.118 85.2443 23.35C85.6643 22.57 86.2463 21.97 86.9903 21.55C87.7463 21.13 88.6103 20.92 89.5823 20.92C90.5183 20.92 91.3523 21.124 92.0843 21.532C92.8163 21.94 93.3863 22.516 93.7943 23.26C94.2023 23.992 94.4063 24.838 94.4063 25.798ZM92.2643 25.15C92.2523 24.394 91.9823 23.788 91.4543 23.332C90.9263 22.876 90.2723 22.648 89.4923 22.648C88.7843 22.648 88.1783 22.876 87.6743 23.332C87.1703 23.776 86.8703 24.382 86.7743 25.15H92.2643ZM97.8477 22.522C98.1477 22.018 98.5437 21.628 99.0357 21.352C99.5397 21.064 100.134 20.92 100.818 20.92V23.044H100.296C99.4917 23.044 98.8797 23.248 98.4597 23.656C98.0517 24.064 97.8477 24.772 97.8477 25.78V31H95.7957V21.082H97.8477V22.522Z" fill="#D6D6D6"/>
<path d="M38.5 6.5V28.5" stroke="#E7E7E7" stroke-linecap="round"/>
</g>
<defs>
<clipPath id="clip0_4_47">
<rect width="104" height="33" fill="white" transform="translate(0 0.5)"/>
</clipPath>
</defs>
</svg>
